<svg 
  xmlns="http://www.w3.org/2000/svg"
  viewBox="0 0 24 24"
  width="auto"
  height="auto"
  fill="currentColor"
  preserveAspectRatio="xMidYMid meet"
  role="img"
  aria-label="OTPless Billing System Logo"
  aria-hidden="true"
  focusable="false"
>
  <title>OTPless Billing System</title>
  
  <!-- Main logo shape - Abstract key/lock representing secure authentication -->
  <path 
    d="M12 2C8.13 2 5 5.13 5 9v2c-1.1 0-2 .9-2 2v7c0 1.1.9 2 2 2h14c1.1 0 2-.9 2-2v-7c0-1.1-.9-2-2-2V9c0-3.87-3.13-7-7-7zm5 9v-2c0-2.76-2.24-5-5-5s-5 2.24-5 5v2h10zm-5 6c-1.1 0-2-.9-2-2s.9-2 2-2 2 .9 2 2-.9 2-2 2z"
    style="transform-origin: center"
  />
  
  <!-- Dollar sign overlay representing billing/financial aspect -->
  <path 
    d="M12.5 11.5v-1c0-.83-.67-1.5-1.5-1.5s-1.5.67-1.5 1.5h-1c0-1.38 1.12-2.5 2.5-2.5s2.5 1.12 2.5 2.5v1c.55 0 1 .45 1 1v3c0 .55-.45 1-1 1h-3c-.55 0-1-.45-1-1v-3c0-.55.45-1 1-1h2zm.5 1h-3v3h3v-3z"
    style="transform-origin: center"
    opacity="0.9"
  />
  
  <!-- Circular border element -->
  <path 
    d="M12 3c-3.31 0-6 2.69-6 6v2h1V9c0-2.76 2.24-5 5-5s5 2.24 5 5v2h1V9c0-3.31-2.69-6-6-6z"
    opacity="0.7"
  />
  
  <style>
    @media (prefers-color-scheme: light) {
      svg { color: #1976D2; }
    }
    @media (prefers-color-scheme: dark) {
      svg { color: #90CAF9; }
    }
  </style>
</svg>