<svg 
  xmlns="http://www.w3.org/2000/svg"
  viewBox="0 0 24 24"
  fill="currentColor"
  width="24"
  height="24"
  role="img"
  aria-label="Billing Icon"
  focusable="false"
  aria-hidden="true"
  shape-rendering="geometricPrecision"
  vector-effect="non-scaling-stroke"
  transform-origin="center"
>
  <title>Billing</title>
  <desc>Icon representing billing and payment functionality</desc>
  
  <!-- Main bill/receipt shape -->
  <path d="M19.5 3.5h-15c-1.1 0-2 .9-2 2v13c0 1.1.9 2 2 2h15c1.1 0 2-.9 2-2v-13c0-1.1-.9-2-2-2zm0 15h-15v-13h15v13z" />
  
  <!-- Dollar symbol -->
  <path d="M12.5 15.5c-2.21 0-4-1.79-4-4s1.79-4 4-4 4 1.79 4 4-1.79 4-4 4zm0-6c-1.1 0-2 .9-2 2s.9 2 2 2 2-.9 2-2-.9-2-2-2z" />
  <path d="M12 7v2m0 6v2" stroke="currentColor" stroke-width="1.5" stroke-linecap="round" />
  <path d="M14 12h-3" stroke="currentColor" stroke-width="1.5" stroke-linecap="round" />
  
  <!-- Receipt lines -->
  <path d="M7 8h3m4 0h3M7 12h2m6 0h2M7 16h3m4 0h3" stroke="currentColor" stroke-width="1.5" stroke-linecap="round" />
</svg>